<svg xmlns="http://www.w3.org/2000/svg" id="Layer_1" viewBox="0 0 1093.9 192.4"><path d="M247.3,191c0,.2,0,.3-.1.4-.1.1-.2.2-.4.3-.2.1-.5.1-.9.2-.4,0-.9.1-1.5.1-.5,0-1,0-1.3-.1-.3,0-.6-.1-.8-.2s-.4-.2-.5-.4-.2-.4-.3-.6l-3.7-9.6c-.4-1.1-.9-2.1-1.3-3-.5-.9-1-1.7-1.7-2.4-.6-.7-1.4-1.2-2.2-1.5-.9-.4-1.9-.6-3.1-.6h-3.5v17.3c0,.2,0,.3-.1.4-.1.1-.2.2-.4.3s-.5.1-.8.2c-.3.1-.8.1-1.3.1s-.9,0-1.3-.1c-.3-.1-.6-.1-.8-.2-.2-.1-.3-.2-.4-.3-.1-.1-.1-.3-.1-.4v-37.7c0-.8.2-1.4.6-1.7.4-.3.9-.5,1.3-.5h8.5c1,0,1.8,0,2.5.1s1.3.1,1.8.2c1.5.3,2.9.7,4.1,1.3s2.2,1.3,3,2.2,1.4,1.9,1.8,3.1c.4,1.2.6,2.4.6,3.9,0,1.4-.2,2.6-.5,3.7-.4,1.1-.9,2-1.6,2.9-.7.8-1.5,1.5-2.4,2.2-.9.6-2,1.1-3.2,1.5.7.3,1.3.7,1.8,1.1.5.4,1,1,1.5,1.6s.9,1.4,1.3,2.2.8,1.7,1.2,2.8l3.6,9c.3.8.5,1.3.6,1.6v.6ZM239.3,162.4c0-1.6-.4-2.9-1-4-.7-1.1-1.9-1.9-3.5-2.4-.5-.1-1.1-.3-1.7-.3-.6-.1-1.5-.1-2.5-.1h-4.5v13.7h5.2c1.4,0,2.6-.2,3.6-.5s1.9-.8,2.5-1.4c.7-.6,1.2-1.3,1.5-2.2.3-.9.4-1.8.4-2.8Z" style="fill:#fff;"></path><path d="M289.8,189.6c0,.4,0,.7-.1,1,0,.3-.1.5-.2.7s-.2.3-.4.4c-.1.1-.3.1-.4.1h-19.1c-.5,0-.9-.2-1.3-.5s-.6-.9-.6-1.7v-36.3c0-.8.2-1.4.6-1.7s.9-.5,1.3-.5h18.9c.2,0,.3,0,.4.1s.2.2.3.4c.1.2.1.4.2.7s.1.6.1,1.1c0,.4,0,.7-.1,1s-.1.5-.2.7-.2.3-.3.4c-.1.1-.3.1-.4.1h-15.6v12.8h13.4c.2,0,.3,0,.4.1s.2.2.3.4c.1.2.2.4.2.7s.1.6.1,1,0,.7-.1,1c0,.3-.1.5-.2.7s-.2.3-.3.4c-.1.1-.3.1-.4.1h-13.4v14.6h15.8c.2,0,.3,0,.4.1s.3.2.4.4.2.4.2.7c.1.2.1.5.1,1Z" style="fill:#fff;"></path><path d="M340.3,189.9c.2.5.3.8.3,1.1s-.1.5-.2.6c-.2.1-.4.2-.8.3-.4,0-.9.1-1.5.1h-1.5c-.4,0-.7-.1-.9-.2s-.3-.2-.4-.3-.2-.3-.3-.5l-3.4-9.9h-16.6l-3.3,9.8c-.1.2-.1.4-.2.5s-.3.2-.4.3c-.2.1-.5.2-.8.2-.4,0-.8.1-1.4.1s-1.1,0-1.5-.1-.6-.2-.8-.3c-.2-.1-.2-.4-.2-.6,0-.3.1-.7.3-1.1l13.4-37.8c.1-.2.2-.4.3-.6.1-.1.3-.3.6-.3.3-.1.6-.1,1-.2h3.1c.4,0,.8.1,1,.2.3.1.5.2.6.4s.3.4.3.6l13.3,37.7ZM323.1,156.5h0l-6.9,20.3h13.9l-7-20.3Z" style="fill:#fff;"></path><path d="M380.3,189.4c0,.4,0,.8-.1,1.1,0,.3-.1.5-.2.7s-.2.3-.3.4c-.1.1-.3.1-.5.1h-17.7c-.5,0-.9-.2-1.3-.5s-.6-.9-.6-1.7v-37.7c0-.2,0-.3.1-.4.1-.1.2-.2.4-.3.2-.1.5-.1.8-.2.3-.1.8-.1,1.3-.1s.9,0,1.3.1c.3.1.6.1.8.2s.3.2.4.3.1.3.1.4v35.2h14.3c.2,0,.3,0,.5.1.1.1.2.2.3.4.1.2.2.4.2.7.1.5.2.8.2,1.2Z" style="fill:#fff;"></path><path d="M447.8,189.6c0,.4,0,.7-.1,1,0,.3-.1.5-.2.7s-.2.3-.4.4c-.1.1-.3.1-.4.1h-19.1c-.5,0-.9-.2-1.3-.5s-.6-.9-.6-1.7v-36.3c0-.8.2-1.4.6-1.7s.9-.5,1.3-.5h18.9c.2,0,.3,0,.4.1s.2.2.3.4c.1.2.1.4.2.7s.1.6.1,1.1c0,.4,0,.7-.1,1s-.1.5-.2.7-.2.3-.3.4c-.1.1-.3.1-.4.1h-15.6v12.8h13.4c.2,0,.3,0,.4.1s.2.2.3.4c.1.2.2.4.2.7s.1.6.1,1,0,.7-.1,1c0,.3-.1.5-.2.7s-.2.3-.3.4c-.1.1-.3.1-.4.1h-13.4v14.6h15.8c.2,0,.3,0,.4.1s.3.2.4.4.2.4.2.7c.1.2.1.5.1,1Z" style="fill:#fff;"></path><path d="M489.9,180.4c0,1.9-.3,3.6-1,5.1s-1.6,2.8-2.9,3.8c-1.2,1-2.7,1.8-4.3,2.3-1.7.5-3.4.8-5.3.8-1.3,0-2.6-.1-3.7-.3s-2.2-.5-3.1-.8-1.6-.7-2.3-1c-.6-.4-1-.7-1.3-.9-.2-.2-.4-.6-.5-1s-.2-.9-.2-1.6c0-.5,0-.8.1-1.1,0-.3.1-.6.2-.7.1-.2.2-.3.3-.4.1-.1.3-.1.4-.1.3,0,.7.2,1.2.5.5.4,1.2.7,2,1.2.8.4,1.8.8,3,1.2s2.5.6,4,.6c1.2,0,2.2-.2,3.2-.5s1.8-.8,2.5-1.3c.7-.6,1.2-1.3,1.6-2.1s.6-1.8.6-2.9c0-1.2-.3-2.1-.8-3-.5-.8-1.2-1.5-2-2.2-.8-.6-1.8-1.2-2.9-1.7s-2.2-1-3.3-1.6c-1.1-.5-2.2-1.1-3.3-1.8-1.1-.6-2-1.4-2.9-2.3-.8-.9-1.5-1.9-2.1-3.1-.5-1.2-.8-2.6-.8-4.3s.3-3.2.9-4.5,1.4-2.4,2.5-3.3c1.1-.9,2.4-1.6,3.9-2.1s3.1-.7,4.8-.7c.9,0,1.8.1,2.7.2.9.2,1.7.4,2.5.6.8.3,1.5.6,2.1.9.6.3,1,.6,1.2.8s.3.4.4.5.1.3.2.4c0,.2.1.4.1.6v2c0,.3-.1.5-.1.7-.1.2-.2.3-.3.4-.1.1-.2.1-.4.1s-.6-.1-1.1-.4c-.5-.3-1.1-.6-1.8-1-.7-.4-1.5-.7-2.5-1s-2-.5-3.2-.5c-1.1,0-2.1.2-2.9.5s-1.5.7-2,1.2-.9,1.1-1.2,1.8c-.3.7-.4,1.4-.4,2.2,0,1.1.3,2.1.8,2.9.5.8,1.2,1.5,2.1,2.2.9.6,1.8,1.2,2.9,1.7s2.2,1.1,3.3,1.6c1.1.5,2.2,1.1,3.3,1.8,1.1.6,2.1,1.4,2.9,2.3.9.9,1.5,1.9,2.1,3.1.6,1.2.8,2.6.8,4.2Z" style="fill:#fff;"></path><path d="M534.7,153.4c0,.4,0,.7-.1,1,0,.3-.1.5-.2.7-.1.2-.2.3-.3.4-.1.1-.3.1-.4.1h-11.2v35.3c0,.2,0,.3-.1.4-.1.1-.2.2-.4.3s-.5.1-.8.2c-.3.1-.8.1-1.3.1s-.9,0-1.3-.1c-.3-.1-.6-.1-.8-.2-.2-.1-.4-.2-.4-.3-.1-.1-.1-.3-.1-.4v-35.3h-11.2c-.2,0-.3,0-.4-.1-.1-.1-.2-.2-.3-.4s-.2-.4-.2-.7-.1-.6-.1-1,0-.7.1-1.1c.1-.3.1-.6.2-.7.1-.2.2-.3.3-.4.1-.1.3-.1.4-.1h27.7c.2,0,.3,0,.4.1.1.1.2.2.3.4s.2.4.2.7c0,.4,0,.7,0,1.1Z" style="fill:#fff;"></path><path d="M578,189.9c.2.5.3.8.3,1.1s-.1.5-.2.6c-.2.1-.4.2-.8.3-.4,0-.9.1-1.5.1h-1.5c-.4,0-.7-.1-.9-.2-.2-.1-.3-.2-.4-.3-.1-.1-.2-.3-.3-.5l-3.4-9.9h-16.6l-3.3,9.8c-.1.2-.1.4-.2.5-.1.1-.3.2-.4.3-.2.1-.5.2-.8.2-.4,0-.8.1-1.4.1s-1.1,0-1.5-.1-.6-.2-.8-.3-.2-.4-.2-.6c0-.3.1-.7.3-1.1l13.4-37.8c.1-.2.2-.4.3-.6.1-.1.3-.3.6-.3.3-.1.6-.1,1-.2h3.1c.4,0,.8.1,1,.2.3.1.5.2.6.4s.3.4.3.6l13.3,37.7ZM560.9,156.5h0l-6.9,20.3h13.9l-7-20.3Z" style="fill:#fff;"></path><path d="M617.4,153.4c0,.4,0,.7-.1,1,0,.3-.1.5-.2.7-.1.2-.2.3-.3.4-.1.1-.3.1-.4.1h-11.2v35.3c0,.2,0,.3-.1.4-.1.1-.2.2-.4.3s-.5.1-.8.2c-.3.1-.8.1-1.3.1s-.9,0-1.3-.1c-.3-.1-.6-.1-.8-.2-.2-.1-.4-.2-.4-.3-.1-.1-.1-.3-.1-.4v-35.3h-11.2c-.2,0-.3,0-.4-.1-.1-.1-.2-.2-.3-.4s-.2-.4-.2-.7-.1-.6-.1-1,0-.7.1-1.1c.1-.3.1-.6.2-.7.1-.2.2-.3.3-.4.1-.1.3-.1.4-.1h27.7c.2,0,.3,0,.4.1.1.1.2.2.3.4s.2.4.2.7c0,.4,0,.7,0,1.1Z" style="fill:#fff;"></path><path d="M658,189.6c0,.4,0,.7-.1,1,0,.3-.1.5-.2.7-.1.2-.2.3-.4.4-.1.1-.3.1-.4.1h-19.1c-.5,0-.9-.2-1.3-.5-.4-.3-.6-.9-.6-1.7v-36.3c0-.8.2-1.4.6-1.7.4-.3.9-.5,1.3-.5h18.9c.2,0,.3,0,.4.1.1.1.2.2.3.4s.1.4.2.7c.1.3.1.6.1,1.1,0,.4,0,.7-.1,1s-.1.5-.2.7c-.1.2-.2.3-.3.4-.1.1-.3.1-.4.1h-15.6v12.8h13.4c.2,0,.3,0,.4.1.1.1.2.2.3.4s.2.4.2.7.1.6.1,1,0,.7-.1,1c0,.3-.1.5-.2.7-.1.2-.2.3-.3.4-.1.1-.3.1-.4.1h-13.4v14.6h15.8c.2,0,.3,0,.4.1.1.1.3.2.4.4.1.2.2.4.2.7.1.2.1.5.1,1Z" style="fill:#fff;"></path><path d="M699.5,171.6c0,1.4-.2,2.7-.8,3.9-.5,1.2-1.2,2.3-2.1,3.2-.9.9-1.9,1.6-3.1,2.1s-2.5.8-3.8.8-2.6-.2-3.8-.8c-1.2-.5-2.2-1.2-3.1-2.1-.9-.9-1.6-2-2.1-3.2s-.7-2.5-.7-3.9.2-2.7.8-3.9c.5-1.2,1.2-2.3,2.1-3.2.9-.9,1.9-1.6,3.1-2.1,1.2-.5,2.5-.8,3.8-.8s2.6.3,3.8.8,2.2,1.2,3.1,2.1c.9.9,1.6,2,2.1,3.2.4,1.2.7,2.5.7,3.9Z" style="fill:#fff;"></path><path d="M746.6,189.6c0,.4,0,.7-.1,1s-.1.5-.2.7c-.1.2-.2.3-.4.4-.1.1-.3.1-.4.1h-20.8c-.1,0-.3,0-.4-.1-.1-.1-.2-.2-.4-.4s-.2-.4-.3-.7-.1-.6-.1-1,0-.7.1-1,.1-.5.2-.7c.1-.2.2-.3.3-.4.1-.1.3-.1.4-.1h8.3v-30.9l-7.7,4.7c-.4.2-.7.3-.9.4-.2,0-.4,0-.6-.1-.1-.1-.2-.4-.3-.7s-.1-.7-.1-1.2v-.9c0-.3.1-.5.1-.6.1-.2.1-.3.3-.4.1-.1.3-.3.4-.4l9.2-6c.1-.1.2-.1.3-.2.1,0,.3-.1.5-.1s.4-.1.6-.1h.9c.5,0,.9,0,1.2.1.3,0,.6.1.8.2.2.1.3.2.4.3.1.1.1.2.1.4v35.8h7.2c.2,0,.3,0,.5.1.1.1.3.2.4.4.1.2.2.4.2.7.3,0,.3.4.3.7Z" style="fill:#fff;"></path><path d="M791.5,169.8c0,1.8-.1,3.5-.3,5.3s-.6,3.5-1,5.2c-.5,1.7-1.2,3.2-2,4.7s-1.9,2.7-3.1,3.8c-1.3,1.1-2.8,1.9-4.5,2.6s-3.8.9-6.1.9c-.9,0-1.7-.1-2.6-.2-.8-.1-1.6-.3-2.2-.4-.7-.2-1.2-.3-1.7-.5s-.8-.4-1-.6c-.2-.2-.4-.4-.4-.8-.1-.3-.1-.8-.1-1.3v-1.1c0-.3.1-.5.1-.6.1-.1.2-.2.3-.3s.3-.1.4-.1c.2,0,.5.1,1,.2.4.2.9.3,1.6.5.6.2,1.4.4,2.2.5.8.2,1.8.2,2.8.2,2,0,3.7-.4,5.1-1.2,1.4-.8,2.6-1.8,3.5-3.2.9-1.3,1.6-2.9,2-4.6.5-1.7.7-3.6.7-5.5-1.1.6-2.4,1.2-3.9,1.7s-3.3.8-5.2.8c-2.2,0-4.1-.3-5.6-.9-1.5-.6-2.7-1.5-3.6-2.5-.9-1.1-1.6-2.3-2-3.8s-.6-3.1-.6-4.8c0-1.8.3-3.5.8-5.1s1.3-3.1,2.4-4.3c1.1-1.2,2.5-2.2,4.2-3,1.7-.7,3.7-1.1,6-1.1,1.7,0,3.1.2,4.4.6,1.3.4,2.4,1,3.3,1.9.9.8,1.8,1.8,2.4,2.9.7,1.1,1.2,2.4,1.6,3.9.4,1.4.7,3,.9,4.7.1,1.9.2,3.7.2,5.5ZM786.1,169.2c0-2.7-.2-4.9-.5-6.8-.3-1.8-.9-3.3-1.5-4.4-.7-1.1-1.5-1.9-2.5-2.5-1-.5-2.1-.8-3.4-.8s-2.5.2-3.4.7-1.7,1.2-2.3,2-1.1,1.8-1.3,2.8c-.3,1-.4,2.1-.4,3.2,0,1.2.1,2.4.4,3.4.3,1,.7,1.9,1.3,2.6.6.7,1.3,1.3,2.2,1.6.9.4,2.1.6,3.4.6,1.5,0,3-.2,4.5-.7,1.2-.3,2.4-.9,3.5-1.7Z" style="fill:#fff;"></path><path d="M836.8,178.6c0,1.8-.3,3.5-.8,5.2s-1.4,3.1-2.5,4.4c-1.1,1.3-2.5,2.3-4.2,3-1.7.8-3.7,1.2-6,1.2-1.7,0-3.1-.2-4.4-.6-1.3-.4-2.4-1-3.3-1.8-.9-.8-1.7-1.7-2.4-2.9-.6-1.1-1.1-2.4-1.5-3.9-.4-1.4-.7-3-.8-4.8-.2-1.7-.2-3.6-.2-5.5,0-1.7.1-3.5.3-5.3s.5-3.5,1-5.2,1.1-3.2,1.9-4.7c.8-1.5,1.8-2.7,3.1-3.8,1.2-1.1,2.7-1.9,4.4-2.6,1.7-.6,3.7-.9,6-.9.8,0,1.5,0,2.3.1s1.5.2,2.2.4,1.2.3,1.7.5.8.3.9.5c.1.1.3.2.3.4.1.1.1.3.2.4,0,.2.1.3.1.5v1.7c0,.3-.1.5-.1.7-.1.2-.2.3-.3.4-.1.1-.3.1-.4.1-.2,0-.5-.1-.9-.2-.4-.1-.9-.3-1.4-.5-.6-.2-1.2-.3-2-.5-.8-.1-1.7-.2-2.8-.2-1.9,0-3.6.4-4.9,1.2-1.4.8-2.5,1.9-3.4,3.2s-1.5,2.9-1.9,4.7-.7,3.6-.7,5.6c.5-.3,1.1-.6,1.8-.9.7-.3,1.4-.6,2.2-.8.8-.3,1.6-.5,2.5-.6.9-.2,1.8-.2,2.8-.2,2.2,0,4,.3,5.5.9,1.5.6,2.7,1.4,3.6,2.5.9,1.1,1.6,2.3,2,3.7-.1,1.4.1,2.9.1,4.6ZM831.4,179.1c0-1.2-.1-2.3-.4-3.3-.2-1-.6-1.8-1.2-2.5-.6-.7-1.3-1.2-2.2-1.6-.9-.4-2.1-.6-3.4-.6-.8,0-1.5.1-2.3.2-.8.1-1.5.3-2.2.6-.7.2-1.4.5-2,.8s-1.2.7-1.8,1.1c0,2.7.2,5,.5,6.8s.8,3.3,1.5,4.4c.6,1.1,1.5,1.9,2.4,2.4,1,.5,2.1.7,3.4.7s2.5-.3,3.4-.8c1-.5,1.8-1.2,2.4-2,.6-.9,1.1-1.8,1.4-2.9.4-1.1.5-2.2.5-3.3Z" style="fill:#fff;"></path><path d="M880.7,169.8c0,1.8-.1,3.5-.3,5.3s-.6,3.5-1,5.2c-.5,1.7-1.2,3.2-2,4.7s-1.9,2.7-3.1,3.8c-1.3,1.1-2.8,1.9-4.5,2.6-1.7.6-3.8.9-6.1.9-.9,0-1.7-.1-2.6-.2-.8-.1-1.6-.3-2.2-.4-.7-.2-1.2-.3-1.7-.5s-.8-.4-1-.6c-.2-.2-.4-.4-.4-.8-.1-.3-.1-.8-.1-1.3v-1.1c0-.3.1-.5.1-.6.1-.1.2-.2.3-.3s.3-.1.4-.1c.2,0,.5.1,1,.2.4.2.9.3,1.6.5.6.2,1.4.4,2.2.5.8.2,1.8.2,2.8.2,2,0,3.7-.4,5.1-1.2,1.4-.8,2.6-1.8,3.5-3.2.9-1.3,1.6-2.9,2-4.6.5-1.7.7-3.6.7-5.5-1.1.6-2.4,1.2-3.9,1.7s-3.3.8-5.2.8c-2.2,0-4.1-.3-5.6-.9-1.5-.6-2.7-1.5-3.6-2.5-.9-1.1-1.6-2.3-2-3.8s-.6-3.1-.6-4.8c0-1.8.3-3.5.8-5.1s1.3-3.1,2.4-4.3c1.1-1.2,2.5-2.2,4.2-3,1.7-.7,3.7-1.1,6-1.1,1.7,0,3.1.2,4.4.6,1.3.4,2.4,1,3.3,1.9.9.8,1.8,1.8,2.4,2.9.7,1.1,1.2,2.4,1.6,3.9.4,1.4.7,3,.9,4.7.1,1.9.2,3.7.2,5.5ZM875.3,169.2c0-2.7-.2-4.9-.5-6.8-.3-1.8-.9-3.3-1.5-4.4-.7-1.1-1.5-1.9-2.5-2.5-1-.5-2.1-.8-3.4-.8s-2.5.2-3.4.7-1.7,1.2-2.3,2-1.1,1.8-1.3,2.8c-.3,1-.4,2.1-.4,3.2,0,1.2.1,2.4.4,3.4.3,1,.7,1.9,1.3,2.6.6.7,1.3,1.3,2.2,1.6.9.4,2.1.6,3.4.6,1.5,0,3-.2,4.5-.7,1.2-.3,2.5-.9,3.5-1.7Z" style="fill:#fff;"></path><path d="M0,39.7v15.7c0,10.6,4.2,20.5,11.7,28.1,7.4,7.4,17.6,11.6,28.1,11.6h77.4v-17.5H39.5c-12,0-22.1-10.2-22.1-22.2v-15.7c.1-12.3,10.1-22.2,22.3-22.2h77.4V0H39.8C17.9,0,0,17.8,0,39.7Z" style="fill:#fff;"></path><path d="M162.1,39.7v15.7c0,21.9,17.8,39.7,39.7,39.7h77.5v-17.5h-77.5c-11.8,0-21.8-9.7-22.2-21.2h99.7v-17.5h-99.7c.2-5.6,2.5-10.9,6.5-14.9,4.2-4.2,9.7-6.5,15.7-6.5h77.5V0h-77.5C179.9,0,162.1,17.8,162.1,39.7Z" style="fill:#fff;"></path><path d="M441.3,52.4c6.3-5.8,9.7-13.5,9.7-21.8,0-10.3-5.4-19.9-14.4-25.6-5.2-3.3-11.3-5-17.6-5h-94.7v95h17.5v-33.8h67.8l25.3,33.8h21.8l-26.7-35.8c4.3-1.4,8.2-3.8,11.3-6.8ZM341.7,17.5h77.3c7.9,0,14.5,6,14.5,13.1s-6.4,13.1-14,13.1h-77.8v-26.2Z" style="fill:#fff;"></path><polygon points="540.5 76.7 483.6 .6 465.4 6.2 535.9 99.4 545.1 99.4 616.9 5.6 597.6 2.1 540.5 76.7" style="fill:#fff;"></polygon><path d="M636.4,39.7v15.7c0,21.9,17.8,39.7,39.7,39.7h77.5v-17.5h-77.5c-11.8,0-21.8-9.7-22.2-21.2h99.7v-17.5h-99.7c.2-5.6,2.5-10.9,6.5-14.9,4.2-4.2,9.8-6.5,15.7-6.5h77.5V0h-77.5C654.2,0,636.4,17.8,636.4,39.7Z" style="fill:#fff;"></path><path d="M915.6,52.4c6.3-5.8,9.7-13.5,9.7-21.8,0-10.3-5.4-19.9-14.4-25.6-5.2-3.3-11.3-5-17.6-5h-94.8v95h17.5v-33.8h67.8l25.3,33.8h21.8l-26.7-35.8c4.4-1.4,8.2-3.8,11.4-6.8ZM816,17.5h77.2c7.9,0,14.5,6,14.5,13.1s-6.4,13.1-14,13.1h-77.7v-26.2Z" style="fill:#fff;"></path><path d="M1082.2,11.6C1074.6,4.1,1064.6,0,1054.2,0h-42.5C989.8,0,972,17.8,972,39.7v55.4h17.5v-40h86.9v40h17.5v-55.4c-.1-10.5-4.2-20.4-11.7-28.1ZM1011.4,17.5h42.7c11.4,0,21.1,9,22.1,20.1h-86.7c1.1-11.1,10.7-20.1,21.9-20.1Z" style="fill:#fff;"></path></svg>