<svg xmlns="http://www.w3.org/2000/svg" id="Layer_1" viewBox="0 0 401.57 178"><path d="M4.94,173.07h24.69v4.94H0v-39.5h4.94v34.56ZM52.67,178h29.62v-4.94h-24.69v-12.34h18.1v-4.94h-18.1v-12.34h24.69v-4.94h-29.62v39.5ZM210.66,178h29.62v-4.94h-24.69v-12.34h18.1v-4.94h-18.1v-12.34h24.69v-4.94h-29.62v39.5ZM105.33,178h4.94v-17.28h18.1v-4.94h-18.1v-12.34h24.69v-4.94h-29.63v39.5ZM158,178h4.94v-17.28h18.1v-4.94h-18.1v-12.34h24.69v-4.94h-29.63v39.5ZM312.7,143.44h17.28v34.56h4.94v-34.56h17.28v-4.94h-39.5v4.94ZM384.51,155.8c-9.87-.9-12.57-2.14-12.57-5.77,0-4,4.85-6.58,12.34-6.58,6.7,0,10.7,2.46,10.7,6.58h4.94c0-8.5-8.42-11.52-15.63-11.52-12.75,0-17.28,6.21-17.28,11.52,0,9.14,9.46,10,17.06,10.69,10.34.94,12.57,1.96,12.57,5.77,0,4-4.85,6.58-12.34,6.58-8.64,0-13.17-3.31-13.17-6.58h-4.94c0,7.92,9.38,11.52,18.1,11.52,12.75,0,17.28-6.21,17.28-11.52,0-9.14-8.67-9.93-17.06-10.69ZM268.26,178h-4.94v-39.5h21.81c6.13,0,11.11,4.98,11.11,11.11,0,3.49-1.62,6.6-4.14,8.64,2.52,2.04,4.14,5.15,4.14,8.64,0,1.29-.03,2.45-.06,3.55-.07,2.76-.12,4.96.36,7.56h-5.01c-.41-2.71-.35-5.04-.29-7.69.03-1.06.06-2.18.06-3.42,0-3.4-2.77-6.17-6.17-6.17h-16.87v17.28ZM268.26,155.79h16.87c3.4,0,6.17-2.77,6.17-6.17s-2.77-6.17-6.17-6.17h-16.87v12.34Z" style="fill:#fff;"></path><polygon points="195.85 72.41 232.06 72.41 232.06 79 189.27 79 189.27 19.75 195.85 19.75 195.85 72.41" style="fill:#fff;"></polygon><polygon points="205.72 6.58 169.52 6.58 169.52 0 212.31 0 212.31 59.25 205.72 59.25 205.72 6.58" style="fill:#fff;"></polygon></svg>