<svg xmlns="http://www.w3.org/2000/svg" viewBox="0 0 512 130.9"><defs><style>      .cls-1 {        fill: #f6f7f7;      }    </style></defs><g><g id="Layer_1"><path class="cls-1" d="M67.4,27.8c5.5,4.2,8.3,10,8.3,17.3s-2.8,13.2-8.3,17.3c-5.5,4.2-13.1,6.3-22.7,6.3h-18.4v20.5h-10.6V21.5h29c9.6,0,17.2,2.1,22.7,6.3h0ZM59.7,56.5c3.5-2.6,5.3-6.4,5.3-11.3s-1.8-8.7-5.3-11.3c-3.5-2.6-8.7-3.9-15.4-3.9h-18.1v30.4h18.1c6.7,0,11.9-1.3,15.4-3.9ZM162.6,72.4h-39.5l-8.2,17h-10.9l33.7-67.8h10.5l33.8,67.8h-11.2l-8.2-17ZM158.9,64.7l-16.1-33.2-16.1,33.2h32.1ZM220.5,21.5h10.6v59.4h40.3v8.4h-50.9V21.5h0ZM380.2,89.4v-49.4c-.1,0-27,41.2-27,41.2h-4.9l-26.9-40.9v49.1h-10.2V21.5h8.7l31,47.7,30.6-47.7h8.7v67.8c.1,0-10.1,0-10.1,0h0ZM487.8,72.4h-39.5l-8.2,17h-11l33.7-67.8h10.5l33.8,67.8h-11.2l-8.2-17ZM484.1,64.7l-16-33.2-16,33.2h32.1ZM85.4,104.1l2.3,6.7h0l2.2-6.7h3v9.8h-2v-6.9h0l-2.4,6.9h-1.7l-2.4-6.9h0v6.9h-2v-9.8h3ZM104.7,104.1v9.8h-2.2v-9.8h2.2ZM119.1,104.1l3.7,9.8h-2.2l-.7-2.2h-3.7l-.8,2.2h-2.2l3.7-9.8s2.2,0,2.2,0ZM119.2,110.1l-1.2-3.6h0l-1.3,3.6h2.5ZM134.4,104.1l2.3,6.7h0l2.2-6.7h3v9.8h-2v-6.9h0l-2.4,6.9h-1.7l-2.4-6.9h0v6.9h-2v-9.8h3ZM153.6,104.1v9.8h-2.2v-9.8h2.2ZM179.3,104.1c.5,0,.9,0,1.3.1.4,0,.7.2,1,.4s.5.4.6.8.2.7.2,1.2-.1.9-.3,1.2c-.2.3-.6.6-1,.8.6.2,1.1.5,1.4.9s.4,1,.4,1.6-.1.9-.3,1.3c-.2.4-.4.7-.8.9-.3.2-.7.4-1.1.5-.4.1-.8.2-1.3.2h-4.8v-9.8h4.6,0ZM179,108c.4,0,.7,0,.9-.3s.4-.5.4-.9,0-.4-.1-.6c0-.2-.2-.3-.3-.3-.1,0-.3-.1-.5-.2-.2,0-.4,0-.6,0h-2v2.3h2.2ZM179.1,112.2c.2,0,.4,0,.6,0s.4-.1.5-.2.3-.2.4-.4c0-.2.1-.4.1-.6,0-.5-.1-.9-.4-1.1-.3-.2-.7-.3-1.1-.3h-2.4v2.7h2.3ZM199.4,104.1v1.8h-5.2v2.1h4.8v1.7h-4.8v2.4h5.3v1.8h-7.4v-9.8h7.3ZM213.5,104.1l3.7,9.8h-2.2l-.7-2.2h-3.7l-.8,2.2h-2.2l3.7-9.8h2.2ZM213.6,110.1l-1.2-3.6h0l-1.3,3.6h2.6ZM232,106.7c-.1-.2-.3-.4-.5-.5-.2-.2-.4-.3-.6-.4s-.5-.1-.8-.1c-.5,0-.9,0-1.2.3-.3.2-.6.4-.8.8-.2.3-.4.7-.5,1.1s-.1.8-.1,1.2,0,.8.1,1.2c.1.4.2.7.5,1.1.2.3.5.6.8.8.3.2.8.3,1.2.3s1.2-.2,1.5-.6.6-.9.7-1.6h2.1c0,.6-.2,1.2-.4,1.7s-.5.9-.9,1.3c-.4.3-.8.6-1.3.8-.5.2-1.1.3-1.7.3s-1.4-.1-2-.4c-.6-.3-1.1-.6-1.5-1.1s-.7-1-.9-1.6c-.2-.6-.3-1.3-.3-2s.1-1.4.3-2,.5-1.2.9-1.6.9-.8,1.5-1.1c.6-.3,1.3-.4,2-.4s1.1,0,1.5.2c.5.2.9.4,1.3.7.4.3.7.7.9,1.1s.4.9.5,1.5h-2.1c0-.2-.1-.5-.2-.7h0ZM245.7,104.1v3.8h4v-3.8h2.2v9.8h-2.2v-4.2h-4v4.2h-2.2v-9.8h2.2ZM278.2,104.1c.4,0,.8,0,1.2.2.4.1.6.3.9.6s.4.5.6.9c.1.3.2.7.2,1.1,0,.6-.1,1.1-.4,1.5s-.6.7-1.2,1h0c.3,0,.5.2.7.4.2.2.3.3.4.5s.2.4.2.7,0,.5.1.7c0,.2,0,.3,0,.6,0,.2,0,.4,0,.6s0,.4.1.6c0,.2.1.4.2.5h-2.2c-.1-.3-.2-.7-.2-1.1s0-.8-.1-1.2c0-.5-.2-.9-.5-1.1-.2-.2-.6-.4-1.2-.4h-2.2v3.8h-2.2v-9.8h5.3,0ZM277.4,108.5c.5,0,.9-.1,1.1-.3.2-.2.4-.6.4-1.1s-.1-.8-.4-1-.6-.3-1.1-.3h-2.4v2.8h2.4ZM297.8,104.1v1.8h-5.2v2.1h4.8v1.7h-4.8v2.4h5.3v1.8h-7.4v-9.8h7.3ZM308.7,111.4c.1.2.3.4.5.6.2.1.4.2.7.3.3,0,.5,0,.8,0s.4,0,.6,0,.4,0,.6-.2c.2,0,.4-.2.5-.4s.2-.4.2-.6,0-.5-.2-.7c-.2-.2-.4-.3-.7-.4-.3-.1-.6-.2-.9-.3-.4,0-.7-.2-1.1-.3-.4,0-.7-.2-1.1-.3s-.7-.3-.9-.5-.5-.5-.7-.8-.2-.7-.2-1.2.1-.9.3-1.3c.2-.4.5-.7.8-.9.4-.2.7-.4,1.2-.6s.9-.2,1.3-.2,1,0,1.5.2c.5.1.9.3,1.3.6.4.3.7.6.9,1s.3.9.3,1.4h-2.1c0-.3,0-.5-.2-.7-.1-.2-.2-.3-.4-.4s-.4-.2-.6-.2c-.2,0-.5,0-.7,0s-.4,0-.5,0-.3,0-.5.2c-.1,0-.3.2-.4.3,0,.1-.1.3-.1.5s0,.3.1.5.2.2.4.3.5.2.9.3.9.2,1.5.4c.2,0,.4,0,.8.2.3,0,.6.2,1,.5s.6.5.8.8c.2.3.4.8.4,1.3s0,.9-.3,1.2-.4.7-.8,1c-.3.3-.8.5-1.3.7s-1.1.2-1.8.2-1.1,0-1.6-.2-1-.3-1.3-.6c-.4-.3-.7-.7-.9-1.1-.2-.4-.3-1-.3-1.6h2.1c0,.3,0,.6.2.8h0ZM325.8,104.1v9.8h-2.2v-9.8h2.2ZM339.6,104.1c.6,0,1.2,0,1.8.3.5.2,1,.5,1.4.9.4.4.7.9.9,1.5s.3,1.3.3,2.1,0,1.4-.3,2c-.2.6-.5,1.1-.8,1.6-.4.4-.8.8-1.4,1-.5.2-1.2.4-2,.4h-4.2v-9.8h4.2ZM339.5,112c.3,0,.6,0,.9-.2s.5-.3.8-.5.4-.5.5-.9c.1-.4.2-.8.2-1.4s0-.9-.1-1.3c-.1-.4-.2-.7-.5-1s-.5-.5-.9-.7-.8-.2-1.3-.2h-1.5v6.2h1.9,0ZM360.6,104.1v1.8h-5.2v2.1h4.8v1.7h-4.8v2.4h5.3v1.8h-7.4v-9.8h7.3ZM372,104.1l4.1,6.6h0v-6.6h2v9.8h-2.2l-4.1-6.6h0v6.6h-2v-9.8h2.1ZM394,106.7c-.1-.2-.3-.4-.5-.5-.2-.2-.4-.3-.6-.4s-.5-.1-.8-.1c-.5,0-.9,0-1.2.3s-.6.4-.8.8c-.2.3-.4.7-.5,1.1s-.1.8-.1,1.2,0,.8.1,1.2c.1.4.2.7.5,1.1.2.3.5.6.8.8.3.2.8.3,1.2.3s1.2-.2,1.5-.6.6-.9.7-1.6h2.1c0,.6-.2,1.2-.4,1.7s-.5.9-.9,1.3c-.4.3-.8.6-1.3.8-.5.2-1.1.3-1.7.3s-1.4-.1-2-.4c-.6-.3-1.1-.6-1.5-1.1s-.7-1-1-1.6c-.2-.6-.3-1.3-.3-2s.1-1.4.3-2,.5-1.2,1-1.6.9-.8,1.5-1.1c.6-.3,1.3-.4,2-.4s1,0,1.5.2c.5.2.9.4,1.3.7s.7.7.9,1.1.4.9.5,1.5h-2.1c0-.2-.1-.5-.2-.7h0ZM412.8,104.1v1.8h-5.2v2.1h4.8v1.7h-4.8v2.4h5.3v1.8h-7.4v-9.8h7.3ZM423.7,111.4c.1.2.3.4.5.6.2.1.4.2.7.3.3,0,.5,0,.8,0s.4,0,.6,0,.4,0,.6-.2c.2,0,.4-.2.5-.4s.2-.4.2-.6,0-.5-.2-.7c-.2-.2-.4-.3-.7-.4-.3-.1-.6-.2-.9-.3-.4,0-.7-.2-1.1-.3-.4,0-.7-.2-1.1-.3s-.7-.3-.9-.5-.5-.5-.7-.8-.2-.7-.2-1.2.1-.9.3-1.3c.2-.4.5-.7.8-.9.4-.2.7-.4,1.2-.6s.9-.2,1.3-.2,1,0,1.5.2c.5.1.9.3,1.3.6.4.3.7.6.9,1s.3.9.3,1.4h-2.1c0-.3,0-.5-.2-.7-.1-.2-.2-.3-.4-.4s-.4-.2-.6-.2c-.2,0-.5,0-.7,0s-.4,0-.5,0-.3,0-.5.2c-.1,0-.3.2-.4.3,0,.1-.1.3-.1.5s0,.3.1.5.2.2.4.3.5.2.9.3.9.2,1.5.4c.2,0,.4,0,.8.2.3,0,.6.2,1,.5s.6.5.8.8c.2.3.4.8.4,1.3s0,.9-.3,1.2-.4.7-.8,1c-.3.3-.8.5-1.3.7s-1.1.2-1.8.2-1.1,0-1.6-.2-1-.3-1.3-.6c-.4-.3-.7-.7-.9-1.1-.2-.4-.3-1-.3-1.6h2.1c0,.3,0,.6.2.8h0Z"></path></g></g></svg>